<?xml version="1.0" standalone="no"?>
<!DOCTYPE svg PUBLIC "-//W3C//DTD SVG 20010904//EN"
 "http://www.w3.org/TR/2001/REC-SVG-20010904/DTD/svg10.dtd">
<svg version="1.0" xmlns="http://www.w3.org/2000/svg"
 width="4500.000000pt" height="4525.000000pt" viewBox="0 0 4500.000000 4525.000000"
 preserveAspectRatio="xMidYMid meet">
<metadata>
Created by potrace 1.16, written by Peter Selinger 2001-2019
</metadata>
<g transform="translate(0.000000,4525.000000) scale(0.100000,-0.100000)"
fill="#000000" stroke="none">
<path d="M0 22625 l0 -22625 22500 0 22500 0 0 22625 0 22625 -22500 0 -22500
0 0 -22625z m12076 12140 c4 -10 -56 -79 -187 -213 -1036 -1056 -1952 -2307
-2619 -3577 -29 -55 -76 -145 -106 -200 -55 -104 -258 -529 -299 -625 -13 -30
-39 -90 -59 -132 -101 -218 -274 -653 -390 -978 -789 -2207 -1001 -4522 -610
-6655 492 -2688 1887 -4999 4014 -6650 1692 -1313 3838 -2125 6130 -2319 422
-36 555 -41 1125 -41 570 0 730 6 1145 40 1448 122 2937 480 4283 1032 181 75
210 84 223 71 12 -12 -5 -35 -134 -173 -191 -206 -252 -263 -469 -436 -98 -79
-287 -234 -421 -345 -1104 -919 -2270 -1660 -3535 -2248 -2659 -1236 -5585
-1667 -8277 -1220 -2228 370 -4198 1299 -5795 2733 -197 177 -594 575 -775
776 -1549 1725 -2485 3853 -2740 6230 -142 1328 -58 2744 246 4110 506 2278
1582 4437 3144 6310 796 954 1722 1830 2815 2661 259 197 716 522 850 604 28
17 91 57 140 90 50 32 189 118 310 191 121 72 237 142 257 155 21 13 40 24 42
24 2 0 37 19 78 42 231 131 711 372 1028 516 254 115 549 240 568 241 7 1 15
-6 18 -14z m32 -1971 c81 -19 129 -41 203 -91 31 -21 89 -59 128 -85 39 -27
71 -52 71 -56 0 -5 12 -15 28 -22 15 -8 35 -21 45 -29 10 -8 32 -16 50 -17 18
-2 55 -8 82 -14 28 -6 104 -14 170 -17 104 -4 127 -2 172 15 41 15 61 18 90
11 36 -8 85 -6 195 7 26 3 83 7 127 9 44 2 85 6 90 10 16 9 389 7 442 -4 3 0
16 -10 29 -21 13 -11 32 -20 44 -20 12 -1 31 -6 43 -13 30 -17 173 -153 173
-164 0 -5 18 -29 39 -52 33 -35 41 -53 45 -95 11 -99 9 -271 -3 -321 -12 -48
-64 -164 -88 -195 -57 -74 -150 -179 -176 -198 -46 -32 -98 -91 -126 -141 -19
-34 -22 -52 -18 -89 13 -110 30 -144 96 -195 43 -34 60 -56 69 -86 9 -27 23
-46 43 -58 16 -10 39 -32 49 -50 11 -18 25 -33 33 -33 15 0 103 -105 165 -196
23 -34 48 -69 57 -77 8 -9 25 -55 36 -104 23 -95 22 -182 -4 -293 -18 -82
-106 -254 -140 -273 -15 -9 -30 -24 -34 -34 -17 -46 -100 -101 -229 -152 -52
-20 -120 -22 -229 -7 -74 11 -160 9 -210 -3 -27 -7 -59 -14 -70 -15 -25 -2
-75 -27 -75 -36 0 -4 -15 -11 -33 -14 -42 -8 -179 -97 -201 -130 -10 -16 -30
-28 -52 -32 -20 -4 -55 -23 -79 -43 -24 -20 -61 -48 -82 -63 -21 -15 -87 -64
-148 -109 -60 -44 -160 -105 -222 -136 l-112 -55 -143 4 c-156 5 -202 17 -298
82 -74 50 -179 162 -201 214 -11 26 -24 56 -29 67 -11 27 -20 72 -31 175 -15
140 -14 173 9 221 12 24 23 53 24 64 2 11 11 31 21 45 9 13 17 28 17 32 0 16
155 178 170 178 4 0 35 18 68 40 33 22 64 40 69 40 5 0 20 12 34 26 27 29 93
74 109 74 20 0 140 102 190 162 37 45 49 66 46 84 -3 13 -1 48 4 77 8 50 7 54
-28 107 -20 30 -40 63 -44 73 -4 9 -18 21 -30 26 -13 5 -41 28 -63 50 -22 23
-60 52 -84 63 -39 19 -48 20 -85 9 -22 -7 -52 -13 -66 -15 -30 -3 -120 -83
-124 -109 -1 -10 -19 -36 -39 -57 -21 -20 -43 -57 -50 -82 -8 -24 -30 -65 -50
-92 -21 -26 -37 -51 -37 -55 0 -5 -13 -25 -30 -46 -16 -20 -34 -52 -39 -69 -4
-18 -25 -54 -45 -80 -20 -26 -36 -54 -36 -62 0 -8 -17 -33 -39 -57 -21 -23
-48 -62 -61 -86 -12 -24 -29 -52 -38 -62 -10 -9 -28 -36 -42 -58 -14 -22 -30
-41 -35 -41 -6 0 -37 -32 -70 -70 -90 -109 -238 -245 -307 -283 -64 -36 -142
-59 -233 -72 -72 -9 -230 18 -295 52 -51 26 -211 163 -219 186 -2 7 -9 18 -15
26 -12 15 -27 55 -57 146 -20 61 -34 289 -19 310 3 6 15 39 26 75 10 36 35 90
55 120 70 106 109 169 116 187 15 41 101 141 139 161 12 6 29 27 38 46 9 19
32 52 51 72 19 20 35 43 35 50 0 7 4 14 8 16 4 2 23 28 42 58 71 117 99 171
94 185 -3 8 5 25 18 38 36 37 86 122 93 156 2 9 16 39 33 67 16 28 35 68 42
90 7 21 17 48 21 59 5 11 25 70 44 130 20 61 40 118 45 127 6 10 10 26 10 36
0 10 4 22 9 27 5 6 12 34 15 64 9 78 16 103 35 125 9 10 15 19 13 20 -2 0 -1
12 1 26 3 14 11 54 18 90 14 73 60 222 81 260 39 70 75 121 90 126 9 2 34 19
55 35 125 100 341 143 511 103z m7320 -2036 c71 -27 104 -70 108 -145 4 -80
-26 -122 -161 -226 -97 -74 -301 -247 -450 -379 l-49 -45 134 -7 c657 -34
1353 -244 1780 -537 390 -267 700 -644 903 -1100 222 -498 272 -1101 141
-1721 -141 -672 -528 -1442 -1036 -2061 -895 -1092 -2197 -1942 -3646 -2381
-192 -58 -312 -88 -506 -125 -88 -17 -161 -33 -164 -35 -6 -6 95 -301 185
-540 239 -635 509 -1172 839 -1671 169 -256 360 -488 619 -754 393 -403 735
-661 1150 -869 398 -199 788 -304 1270 -343 228 -18 728 0 755 27 5 5 -2 47
-16 94 -33 114 -89 395 -111 555 -22 165 -25 723 -5 885 73 583 162 1033 297
1505 447 1552 1221 2958 2357 4285 192 224 355 396 604 637 335 323 369 351
689 568 105 71 214 146 244 168 l54 40 -75 27 c-182 67 -305 185 -398 383 -82
175 -107 386 -76 651 45 385 157 692 371 1011 121 180 233 314 415 495 297
298 610 531 881 659 292 137 523 193 794 193 370 0 661 -101 865 -302 129
-127 190 -223 236 -377 23 -76 27 -107 27 -223 1 -199 -37 -354 -104 -421 -97
-97 -280 -86 -322 19 -14 35 -14 46 4 127 50 241 5 427 -136 570 -312 316
-955 276 -1506 -93 -272 -183 -585 -493 -800 -794 -297 -414 -417 -1000 -270
-1314 34 -72 97 -145 156 -179 135 -80 333 -93 507 -34 85 28 291 128 355 171
28 20 65 40 81 46 17 6 53 28 81 50 61 48 115 61 160 38 46 -24 78 -64 90
-112 23 -89 9 -166 -38 -218 -50 -55 -628 -429 -991 -641 -480 -280 -770 -505
-1155 -897 -1122 -1139 -2005 -2546 -2537 -4037 -73 -206 -180 -549 -222 -716
-94 -371 -194 -993 -227 -1400 -15 -187 -7 -564 16 -735 35 -265 112 -585 143
-598 21 -8 280 81 448 153 167 73 348 170 469 251 113 76 170 83 236 27 41
-35 69 -96 69 -153 0 -52 -35 -134 -71 -167 -97 -89 -598 -335 -879 -432 -46
-16 -86 -33 -88 -39 -5 -15 106 -148 189 -228 239 -228 548 -378 872 -423 109
-15 353 -13 472 4 308 43 625 150 888 297 521 292 1267 984 1727 1602 170 229
360 524 498 778 54 97 99 141 169 163 88 28 159 8 213 -58 20 -25 25 -42 24
-87 -1 -51 -8 -68 -104 -235 -455 -790 -912 -1351 -1566 -1922 -279 -243 -560
-443 -859 -611 -269 -151 -604 -265 -932 -317 -137 -22 -472 -31 -603 -16
-208 24 -413 80 -588 161 -302 141 -586 389 -773 675 -32 50 -63 95 -68 101
-6 8 -32 7 -92 -3 -286 -45 -724 -61 -984 -34 -923 95 -1772 506 -2479 1200
-266 262 -484 517 -698 819 -304 427 -626 1039 -876 1664 -90 223 -230 615
-272 761 -18 61 -26 76 -39 72 -9 -2 -117 -9 -241 -14 -394 -16 -661 8 -888
80 -51 17 -96 27 -101 24 -6 -3 -15 -31 -21 -63 -6 -31 -22 -104 -35 -162 -63
-275 -187 -997 -254 -1470 -70 -501 -98 -838 -108 -1305 -16 -811 90 -1327
349 -1708 120 -176 310 -339 490 -421 99 -45 128 -76 128 -137 0 -63 -23 -114
-73 -161 -124 -116 -192 -120 -380 -23 -284 146 -493 373 -652 707 -169 356
-242 739 -252 1318 -18 1051 112 2209 374 3335 31 132 58 250 60 261 4 17 -9
30 -64 67 -128 85 -274 256 -352 413 -83 166 -119 322 -128 559 -9 226 20 431
93 673 124 408 410 729 734 822 98 29 323 38 431 19 41 -7 78 -13 82 -14 4 0
32 65 62 144 215 570 695 1579 1093 2296 404 729 1035 1688 1462 2225 93 116
98 111 -81 80 -758 -136 -1665 -472 -2477 -917 -1174 -643 -2305 -1584 -3157
-2628 -878 -1075 -1458 -2150 -1800 -3334 -163 -568 -235 -1101 -222 -1655 8
-328 33 -518 107 -823 240 -978 847 -1747 1650 -2091 63 -27 161 -64 216 -81
119 -36 146 -55 170 -116 43 -113 -49 -260 -179 -287 -52 -11 -61 -10 -173 26
-449 143 -819 372 -1175 726 -178 177 -252 267 -384 465 -286 429 -478 929
-569 1485 -165 998 -10 2081 470 3292 461 1163 1267 2361 2284 3391 648 658
1325 1198 2130 1699 896 557 1725 920 2615 1142 303 76 536 116 880 152 l160
17 200 192 c110 106 227 216 260 246 152 138 420 348 484 381 45 22 100 21
169 -4z m21593 -3201 c40 -27 75 -87 95 -160 31 -115 12 -386 -40 -582 -43
-159 -268 -764 -491 -1319 -149 -373 -213 -541 -205 -546 7 -4 46 -10 87 -14
42 -4 154 -20 251 -36 194 -32 210 -40 231 -111 24 -81 -34 -196 -121 -237
l-43 -21 -160 31 c-117 22 -193 30 -284 31 l-124 2 -84 -185 c-331 -727 -603
-1272 -866 -1730 l-100 -175 -28 -190 c-53 -367 -96 -951 -86 -1175 18 -376
138 -652 323 -741 226 -107 498 -6 873 325 443 391 819 923 1221 1727 56 111
111 215 123 231 30 41 106 78 161 78 59 0 123 -47 144 -107 l16 -42 -63 -133
c-180 -384 -503 -947 -715 -1244 -191 -267 -410 -514 -643 -726 -217 -196
-327 -274 -515 -363 -483 -228 -839 -166 -1080 188 -98 144 -158 323 -177 528
-14 143 -14 634 -1 793 6 66 7 123 2 128 -4 4 -29 -19 -55 -52 -71 -87 -221
-232 -312 -301 -99 -74 -253 -151 -365 -181 -117 -31 -358 -33 -435 -4 -127
48 -204 129 -286 300 -83 174 -108 303 -129 671 -11 200 -34 296 -108 445 -70
141 -123 168 -230 114 -78 -39 -455 -430 -568 -589 -151 -212 -347 -561 -513
-910 -100 -212 -522 -1191 -542 -1260 -22 -74 -94 -117 -186 -110 -47 4 -62
10 -90 37 -53 51 -58 85 -45 276 14 187 43 448 71 625 10 65 15 120 11 122 -5
3 -41 -37 -82 -88 -165 -203 -377 -414 -548 -543 -105 -79 -335 -195 -455
-229 -385 -110 -689 -52 -923 177 -238 233 -342 530 -330 940 2 59 0 109 -4
110 -3 2 -50 -58 -103 -132 -386 -536 -801 -961 -1082 -1108 -181 -94 -342
-132 -558 -132 -146 0 -236 18 -335 66 -158 78 -276 242 -337 469 -26 96 -27
109 -27 360 0 245 1 267 27 385 15 69 30 136 33 149 15 54 -28 5 -199 -225
-202 -272 -479 -655 -527 -729 -19 -27 -61 -88 -95 -135 l-62 -85 -6 -140
c-11 -257 -57 -498 -132 -685 -52 -129 -154 -338 -219 -448 -149 -251 -473
-617 -671 -757 l-70 -50 -100 0 c-118 0 -158 16 -223 90 -72 82 -76 169 -14
325 26 67 49 107 170 296 39 62 96 160 126 218 31 59 91 161 134 229 44 67
105 165 138 217 32 52 162 251 290 441 l232 346 -14 124 c-25 231 -83 562
-194 1114 -61 303 -121 629 -134 725 l-22 175 -23 -47 c-43 -90 -152 -131
-246 -95 -75 29 -111 78 -101 139 4 23 11 47 15 53 16 20 135 334 196 520 77
231 121 398 130 485 19 203 81 533 109 587 56 109 224 147 303 68 21 -21 33
-44 34 -61 1 -16 2 -36 3 -44 1 -8 -2 -26 -6 -40 -4 -14 -19 -113 -33 -220
-14 -107 -36 -240 -48 -295 -19 -90 -21 -130 -21 -405 0 -231 4 -340 17 -450
19 -152 94 -573 177 -995 48 -241 98 -507 144 -760 12 -66 27 -120 33 -120 6
0 95 119 199 265 103 146 280 393 394 550 274 378 375 523 559 805 87 132 169
246 187 260 18 14 59 69 90 123 145 247 261 400 419 550 165 158 290 235 469
286 114 33 198 41 281 27 156 -28 253 -123 297 -293 l22 -84 -25 -50 c-35 -70
-101 -110 -181 -107 -85 2 -117 25 -148 102 -33 83 -61 105 -118 97 -170 -23
-428 -249 -615 -536 -74 -115 -323 -595 -361 -696 -8 -22 -34 -92 -60 -156
-55 -143 -128 -369 -161 -498 -46 -183 -59 -284 -59 -485 -1 -170 2 -199 22
-270 49 -169 116 -265 219 -312 245 -113 593 29 959 392 355 352 845 1085
1063 1590 44 101 81 196 81 207 0 29 65 106 106 126 37 18 50 35 100 124 221
396 496 700 749 827 125 62 218 84 340 79 97 -3 107 -6 188 -46 114 -56 223
-157 261 -241 44 -99 59 -189 53 -326 -6 -141 -30 -246 -86 -375 -187 -434
-618 -810 -1116 -974 -119 -40 -272 -74 -371 -83 -38 -3 -65 -11 -68 -19 -10
-26 -35 -222 -41 -324 -13 -203 30 -434 107 -583 79 -151 213 -255 371 -287
90 -18 240 -14 332 10 269 68 600 329 874 690 178 234 258 367 430 707 148
296 166 337 231 528 154 454 401 1005 500 1118 80 91 222 129 312 84 55 -28
70 -58 75 -151 4 -69 1 -86 -16 -113 -25 -40 -58 -61 -124 -83 l-51 -17 -56
-139 c-30 -77 -63 -151 -72 -166 -20 -30 -138 -333 -138 -353 0 -22 -34 -119
-106 -303 -35 -89 -80 -217 -99 -285 -32 -116 -93 -359 -100 -402 -1 -11 -9
-38 -17 -60 -31 -84 -36 -105 -27 -110 4 -3 44 68 88 157 196 398 434 783 655
1059 193 240 486 474 664 529 210 65 430 -33 551 -245 54 -93 106 -228 126
-326 14 -68 35 -290 50 -529 14 -234 37 -312 112 -381 63 -58 123 -82 203 -82
74 1 124 18 220 76 270 164 485 411 698 802 l71 130 31 175 c37 212 107 530
161 740 56 214 243 862 274 947 14 39 25 73 25 77 0 13 -50 5 -170 -28 -242
-67 -517 -172 -720 -277 -105 -53 -147 -59 -205 -25 -72 43 -96 108 -69 193
23 72 49 92 229 178 317 153 674 272 984 330 47 8 85 16 86 18 1 1 21 58 44
126 63 181 188 493 295 735 172 386 406 889 500 1071 160 311 364 623 452 690
87 66 220 86 285 42z"/>
<path d="M10615 33774 c-600 -392 -1338 -917 -1809 -1289 -464 -366 -667 -533
-976 -801 -775 -673 -1137 -1086 -1947 -2219 -137 -192 -332 -465 -433 -605
-623 -868 -1109 -1735 -1511 -2698 -886 -2126 -1192 -4440 -893 -6772 49 -389
133 -876 209 -1215 345 -1548 1048 -2895 2155 -4130 302 -337 781 -796 1150
-1104 1586 -1321 3638 -2254 5711 -2595 546 -90 1015 -132 1604 -143 1114 -20
2293 139 3400 459 255 74 1121 366 1449 490 1158 436 2413 1082 3756 1936 265
169 780 511 809 538 33 30 -8 24 -186 -29 -103 -30 -197 -57 -208 -60 -11 -3
-114 -30 -230 -61 -998 -265 -2058 -436 -3155 -508 -265 -18 -1312 -18 -1555
0 -889 64 -1513 173 -2330 408 -1794 516 -3325 1361 -4610 2546 -1061 979
-1959 2174 -2723 3623 -387 735 -769 2182 -917 3470 -160 1401 -105 2820 160
4176 256 1305 644 2476 1175 3548 417 841 740 1325 1699 2546 198 253 397 507
442 564 46 58 77 107 72 112 -5 5 -139 -77 -308 -187z"/>
<path d="M11920 32359 c0 -6 -9 -8 -20 -4 -11 4 -20 2 -20 -4 0 -6 -5 -11 -11
-11 -27 0 -79 -33 -79 -51 0 -10 -12 -24 -27 -31 -19 -9 -33 -28 -45 -63 -10
-27 -23 -59 -28 -70 -16 -34 -34 -109 -32 -129 1 -11 -6 -28 -15 -39 -10 -10
-16 -20 -14 -21 4 -2 -16 -82 -35 -134 -9 -23 -17 -50 -19 -60 -2 -9 -4 -18
-5 -19 -3 -4 -5 -13 -14 -66 -4 -27 -19 -65 -32 -85 -17 -25 -24 -46 -21 -65
3 -20 -2 -33 -18 -45 -30 -23 -50 -66 -64 -131 -6 -29 -20 -65 -31 -78 -11
-14 -20 -32 -20 -40 0 -8 -15 -32 -34 -54 -50 -59 -130 -224 -131 -273 -1 -36
-5 -43 -38 -60 -20 -11 -37 -23 -37 -28 0 -5 -20 -33 -45 -63 -25 -31 -51 -68
-59 -83 -8 -16 -28 -43 -45 -61 -17 -18 -31 -41 -31 -51 0 -11 -8 -25 -17 -32
-21 -15 -63 -73 -63 -86 0 -5 -13 -27 -28 -48 -49 -67 -53 -81 -58 -191 -3
-93 -1 -110 17 -142 22 -39 96 -94 114 -83 5 3 20 5 33 3 26 -3 116 25 149 46
12 8 27 12 33 8 12 -7 92 54 125 94 11 14 33 38 48 54 16 16 37 48 47 71 10
22 31 55 47 72 76 83 217 293 289 430 25 49 52 96 60 105 8 8 14 21 14 27 0 6
11 27 24 46 13 19 26 53 30 74 3 22 12 42 20 45 8 3 20 25 27 49 6 24 14 45
18 48 11 8 41 77 41 95 0 9 6 31 14 48 31 71 60 163 58 185 -1 13 7 40 18 61
10 21 21 49 24 62 2 13 11 42 19 64 8 22 17 58 21 80 4 21 14 52 23 68 19 37
30 167 14 167 -18 0 -13 24 8 37 16 10 19 24 19 80 0 37 -6 80 -14 94 -7 15
-11 29 -8 32 8 8 -25 68 -55 100 -33 35 -79 60 -97 53 -8 -3 -14 -1 -14 4 0 6
-7 10 -15 10 -8 0 -15 -5 -15 -11z"/>
<path d="M13576 32168 c-10 -6 -55 -10 -100 -10 -46 1 -100 -6 -125 -14 -24
-8 -51 -12 -59 -9 -8 3 -21 0 -28 -6 -9 -7 -14 -8 -14 -1 0 16 -24 8 -49 -17
-17 -17 -26 -20 -34 -12 -20 20 -52 11 -92 -25 -32 -29 -35 -36 -17 -31 12 3
22 2 22 -3 0 -12 -28 -20 -45 -14 -8 4 -15 1 -15 -6 0 -8 9 -11 25 -8 27 6 75
-34 56 -47 -33 -20 19 -61 73 -57 20 2 35 -6 52 -25 13 -16 24 -30 24 -34 0
-10 105 -43 131 -40 16 1 38 -8 57 -24 l32 -27 45 18 c45 17 47 17 84 -4 21
-12 50 -22 65 -22 28 0 96 29 96 42 0 4 16 8 35 8 19 0 35 5 35 11 0 5 4 8 9
5 10 -7 81 21 82 32 0 4 3 16 6 27 2 11 5 28 6 38 1 9 5 17 9 17 11 0 10 38
-2 45 -5 3 -7 12 -4 20 7 16 -16 75 -29 75 -4 0 -22 15 -40 33 -18 20 -53 40
-82 50 -64 20 -185 29 -209 15z"/>
<path d="M12940 31433 c-75 -25 -131 -80 -138 -138 -8 -58 -8 -110 -1 -120 4
-5 8 -14 9 -20 14 -64 38 -102 105 -168 80 -78 102 -97 115 -97 13 0 64 -47
255 -236 62 -62 122 -115 134 -119 12 -3 59 -44 105 -91 45 -46 88 -84 95 -84
7 0 23 -11 37 -25 39 -39 162 -95 210 -95 38 0 70 -18 59 -34 -3 -3 1 -2 7 4
7 5 26 10 43 10 47 0 69 53 63 155 -3 66 -7 80 -27 96 -13 10 -20 19 -17 19
22 0 -66 113 -149 191 -42 40 -84 82 -168 171 -40 42 -85 81 -100 87 -15 6
-27 16 -27 23 -1 17 -35 58 -49 58 -9 0 -159 140 -331 310 -81 80 -175 122
-230 103z"/>
<path d="M13008 30146 c-8 -8 -26 -11 -44 -9 -17 3 -48 -3 -70 -13 -21 -10
-43 -18 -49 -19 -25 -3 -55 -17 -55 -26 0 -6 -4 -8 -9 -5 -5 3 -20 -3 -34 -14
-14 -11 -32 -20 -40 -20 -20 0 -117 -66 -135 -91 -7 -10 -21 -19 -31 -19 -9 0
-40 -22 -68 -49 -28 -26 -54 -50 -59 -52 -13 -6 -74 -85 -74 -97 0 -5 -6 -15
-14 -21 -22 -19 -16 -109 11 -158 13 -23 23 -48 23 -57 0 -40 113 -93 144 -67
11 9 25 9 56 1 36 -10 47 -8 98 15 61 28 215 123 220 137 2 4 19 15 38 24 19
9 42 30 50 45 8 16 21 29 28 29 17 0 96 74 96 89 0 7 11 16 25 21 36 14 88 98
81 131 -4 21 -1 28 14 32 24 6 28 47 5 47 -8 0 -15 5 -15 11 0 7 -12 23 -26
36 -16 15 -24 31 -21 42 6 23 -44 64 -66 55 -8 -3 -18 -1 -22 5 -9 15 -41 14
-57 -3z"/>
<path d="M18548 29573 l-57 -4 -75 -82 c-325 -357 -692 -862 -1176 -1617 -578
-901 -1138 -2004 -1579 -3109 l-82 -203 83 -87 c92 -95 154 -184 217 -310 54
-107 86 -193 154 -421 72 -239 86 -293 153 -605 55 -257 178 -762 187 -772 3
-2 65 7 139 22 1235 245 2628 986 3529 1876 445 440 814 944 1082 1479 207
412 314 727 372 1095 26 160 31 493 11 653 -55 429 -213 783 -511 1147 -418
509 -992 809 -1735 909 -225 30 -505 42 -712 29z"/>
<path d="M14860 24349 c-157 -18 -268 -93 -377 -254 -149 -221 -222 -528 -193
-819 14 -146 40 -248 84 -343 49 -103 166 -266 180 -252 4 3 34 102 67 220
125 444 252 843 390 1226 38 105 69 196 69 201 0 6 -26 13 -57 17 -32 3 -67 7
-78 9 -11 2 -49 -1 -85 -5z"/>
<path d="M15338 23903 c-36 -104 -93 -276 -126 -383 -101 -323 -307 -1058
-300 -1066 14 -14 171 -70 263 -94 189 -49 242 -55 512 -55 138 0 253 2 256 5
3 3 -28 136 -68 295 -41 160 -98 412 -129 560 -79 385 -135 574 -218 740 -39
76 -108 185 -117 185 -4 0 -37 -84 -73 -187z"/>
<path d="M40718 26910 c-153 -243 -573 -1155 -815 -1770 -36 -91 -67 -171 -70
-177 -6 -15 39 -17 126 -6 62 7 42 -29 186 328 102 252 238 612 335 885 34 96
97 265 140 375 83 216 124 344 118 372 -3 15 -6 14 -20 -7z"/>
<path d="M39718 24593 c-26 -4 -31 -13 -82 -176 -80 -248 -189 -637 -182 -644
12 -13 1 -36 357 725 l48 102 -57 -1 c-31 -1 -69 -4 -84 -6z"/>
<path d="M33962 23310 c-136 -38 -341 -216 -462 -401 -73 -110 -220 -403 -279
-554 -23 -60 -58 -146 -76 -190 -45 -107 -61 -163 -49 -175 13 -13 155 14 271
51 217 69 419 194 589 364 116 116 207 241 268 368 77 160 101 331 59 412 -26
49 -98 120 -136 134 -41 16 -113 12 -185 -9z"/>
<path d="M28794 19403 c-190 -293 -396 -641 -384 -648 12 -8 160 173 242 295
100 151 230 421 208 435 -5 3 -35 -34 -66 -82z"/>
</g>
</svg>
